<?xml version="1.0" encoding="UTF-8"?>
<!DOCTYPE svg PUBLIC "-//W3C//DTD SVG 1.1//EN" "http://www.w3.org/Graphics/SVG/1.1/DTD/svg11.dtd">
<svg xmlns="http://www.w3.org/2000/svg" version="1.1" width="1536px" height="864px" style="shape-rendering:geometricPrecision; text-rendering:geometricPrecision; image-rendering:optimizeQuality; fill-rule:evenodd; clip-rule:evenodd" xmlns:xlink="http://www.w3.org/1999/xlink">
<g><path style="opacity:1" fill="#fffefe" d="M -0.5,-0.5 C 511.5,-0.5 1023.5,-0.5 1535.5,-0.5C 1535.5,287.5 1535.5,575.5 1535.5,863.5C 1023.5,863.5 511.5,863.5 -0.5,863.5C -0.5,575.5 -0.5,287.5 -0.5,-0.5 Z"/></g>
<g><path style="opacity:1" fill="#ff2929" d="M 453.5,275.5 C 378.167,275.5 302.833,275.5 227.5,275.5C 227.5,317.833 227.5,360.167 227.5,402.5C 227.167,402.5 226.833,402.5 226.5,402.5C 226.5,359.833 226.5,317.167 226.5,274.5C 302.335,274.167 378.002,274.501 453.5,275.5 Z"/></g>
<g><path style="opacity:1" fill="#ff0000" d="M 453.5,275.5 C 453.5,294.5 453.5,313.5 453.5,332.5C 400.5,332.5 347.5,332.5 294.5,332.5C 294.5,355.833 294.5,379.167 294.5,402.5C 272.167,402.5 249.833,402.5 227.5,402.5C 227.5,360.167 227.5,317.833 227.5,275.5C 302.833,275.5 378.167,275.5 453.5,275.5 Z"/></g>
<g><path style="opacity:1" fill="#ff0100" d="M 512.5,274.5 C 563.834,274.333 615.168,274.5 666.5,275C 692.528,276.559 715.528,285.559 735.5,302C 756.348,325.155 764.514,352.322 760,383.5C 753.915,419.217 733.748,442.717 699.5,454C 690.333,456.767 681,458.767 671.5,460C 640.835,460.5 610.168,460.667 579.5,460.5C 579.5,503.167 579.5,545.833 579.5,588.5C 557.167,588.5 534.833,588.5 512.5,588.5C 512.5,483.833 512.5,379.167 512.5,274.5 Z"/></g>
<g><path style="opacity:1" fill="#ff0302" d="M 872.5,402.5 C 872.167,402.5 871.833,402.5 871.5,402.5C 848.833,402.5 826.167,402.5 803.5,402.5C 803.5,359.833 803.5,317.167 803.5,274.5C 879.5,274.5 955.5,274.5 1031.5,274.5C 1031.5,293.833 1031.5,313.167 1031.5,332.5C 978.5,332.5 925.5,332.5 872.5,332.5C 872.5,355.833 872.5,379.167 872.5,402.5 Z"/></g>
<g><path style="opacity:1" fill="#ff0000" d="M 1080.5,275.5 C 1102.83,275.5 1125.17,275.5 1147.5,275.5C 1147.17,360.668 1147.5,445.668 1148.5,530.5C 1201.5,530.5 1254.5,530.5 1307.5,530.5C 1307.5,549.833 1307.5,569.167 1307.5,588.5C 1231.83,588.5 1156.17,588.5 1080.5,588.5C 1080.5,484.167 1080.5,379.833 1080.5,275.5 Z"/></g>
<g><path style="opacity:1" fill="#ff3130" d="M 1080.5,275.5 C 1102.99,274.503 1125.66,274.169 1148.5,274.5C 1148.5,359.833 1148.5,445.167 1148.5,530.5C 1147.5,445.668 1147.17,360.668 1147.5,275.5C 1125.17,275.5 1102.83,275.5 1080.5,275.5 Z"/></g>
<g><path style="opacity:1" fill="#ff9e9e" d="M 641.5,333.5 C 620.833,333.5 600.167,333.5 579.5,333.5C 579.5,356.5 579.5,379.5 579.5,402.5C 578.502,379.339 578.169,356.006 578.5,332.5C 599.673,332.169 620.673,332.503 641.5,333.5 Z"/></g>
<g><path style="opacity:1" fill="#fffdfd" d="M 641.5,333.5 C 655.36,332.476 668.36,335.309 680.5,342C 692.984,350.82 697.151,362.653 693,377.5C 689.585,385.916 683.752,392.082 675.5,396C 669.801,398.544 663.801,400.211 657.5,401C 631.521,402.354 605.521,402.854 579.5,402.5C 579.5,379.5 579.5,356.5 579.5,333.5C 600.167,333.5 620.833,333.5 641.5,333.5 Z"/></g>
<g><path style="opacity:1" fill="#ffcccc" d="M 453.5,332.5 C 401.003,333.499 348.336,333.832 295.5,333.5C 295.5,356.167 295.5,378.833 295.5,401.5C 344.003,401.168 392.336,401.501 440.5,402.5C 391.833,402.5 343.167,402.5 294.5,402.5C 294.5,379.167 294.5,355.833 294.5,332.5C 347.5,332.5 400.5,332.5 453.5,332.5 Z"/></g>
<g><path style="opacity:1" fill="#ffc2c2" d="M 226.5,402.5 C 226.833,402.5 227.167,402.5 227.5,402.5C 249.833,402.5 272.167,402.5 294.5,402.5C 294.5,421.833 294.5,441.167 294.5,460.5C 271.833,460.5 249.167,460.5 226.5,460.5C 248.66,459.503 270.994,459.169 293.5,459.5C 293.5,440.833 293.5,422.167 293.5,403.5C 270.994,403.831 248.66,403.497 226.5,402.5 Z"/></g>
<g><path style="opacity:1" fill="#ff1f1e" d="M 294.5,402.5 C 343.167,402.5 391.833,402.5 440.5,402.5C 440.5,421.833 440.5,441.167 440.5,460.5C 391.833,460.5 343.167,460.5 294.5,460.5C 294.5,441.167 294.5,421.833 294.5,402.5 Z"/></g>
<g><path style="opacity:1" fill="#fe0000" d="M 295.5,403.5 C 343.5,403.5 391.5,403.5 439.5,403.5C 439.5,422.167 439.5,440.833 439.5,459.5C 391.5,459.5 343.5,459.5 295.5,459.5C 295.5,440.833 295.5,422.167 295.5,403.5 Z"/></g>
<g><path style="opacity:1" fill="#ffacab" d="M 871.5,402.5 C 871.833,402.5 872.167,402.5 872.5,402.5C 872.5,421.833 872.5,441.167 872.5,460.5C 920.833,460.5 969.167,460.5 1017.5,460.5C 1017.5,441.167 1017.5,421.833 1017.5,402.5C 1018.5,421.993 1018.83,441.66 1018.5,461.5C 969.833,461.5 921.167,461.5 872.5,461.5C 872.832,504.003 872.499,546.337 871.5,588.5C 871.5,545.833 871.5,503.167 871.5,460.5C 871.5,441.167 871.5,421.833 871.5,402.5 Z"/></g>
<g><path style="opacity:1" fill="#ff0101" d="M 872.5,402.5 C 920.833,402.5 969.167,402.5 1017.5,402.5C 1017.5,421.833 1017.5,441.167 1017.5,460.5C 969.167,460.5 920.833,460.5 872.5,460.5C 872.5,441.167 872.5,421.833 872.5,402.5 Z"/></g>
<g><path style="opacity:1" fill="#ff0000" d="M 294.5,530.5 C 347.5,530.5 400.5,530.5 453.5,530.5C 453.5,549.833 453.5,569.167 453.5,588.5C 378.167,588.5 302.833,588.5 227.5,588.5C 227.5,546.167 227.5,503.833 227.5,461.5C 249.5,461.5 271.5,461.5 293.5,461.5C 293.169,484.673 293.502,507.673 294.5,530.5 Z"/></g>
<g><path style="opacity:1" fill="#ff2a2a" d="M 226.5,460.5 C 249.167,460.5 271.833,460.5 294.5,460.5C 294.5,483.833 294.5,507.167 294.5,530.5C 293.502,507.673 293.169,484.673 293.5,461.5C 271.5,461.5 249.5,461.5 227.5,461.5C 227.5,503.833 227.5,546.167 227.5,588.5C 226.501,546.003 226.168,503.337 226.5,460.5 Z"/></g>
<g><path style="opacity:1" fill="#ff0000" d="M 804.5,460.5 C 826.833,460.5 849.167,460.5 871.5,460.5C 871.5,503.167 871.5,545.833 871.5,588.5C 849.167,588.5 826.833,588.5 804.5,588.5C 804.5,545.833 804.5,503.167 804.5,460.5 Z"/></g>
<g><path style="opacity:1" fill="#ffcdcd" d="M 294.5,460.5 C 343.167,460.5 391.833,460.5 440.5,460.5C 392.336,461.499 344.003,461.832 295.5,461.5C 295.5,484.167 295.5,506.833 295.5,529.5C 348.336,529.168 401.003,529.501 453.5,530.5C 400.5,530.5 347.5,530.5 294.5,530.5C 294.5,507.167 294.5,483.833 294.5,460.5 Z"/></g>
<g><path style="opacity:1" fill="#ff918e" d="M 512.5,274.5 C 512.5,379.167 512.5,483.833 512.5,588.5C 534.833,588.5 557.167,588.5 579.5,588.5C 557.006,589.497 534.339,589.831 511.5,589.5C 511.167,484.332 511.501,379.332 512.5,274.5 Z"/></g>
<g><path style="opacity:1" fill="#ff9593" d="M 804.5,460.5 C 804.5,503.167 804.5,545.833 804.5,588.5C 826.833,588.5 849.167,588.5 871.5,588.5C 849.006,589.497 826.339,589.831 803.5,589.5C 803.168,546.33 803.501,503.33 804.5,460.5 Z"/></g>
</svg>
