<?xml version="1.0" standalone="no"?>
<!DOCTYPE svg PUBLIC "-//W3C//DTD SVG 20010904//EN"
 "http://www.w3.org/TR/2001/REC-SVG-20010904/DTD/svg10.dtd">
<svg version="1.0" xmlns="http://www.w3.org/2000/svg"
 width="581.000000pt" height="572.000000pt" viewBox="0 0 581.000000 572.000000"
 preserveAspectRatio="xMidYMid meet">

<g transform="translate(0.000000,572.000000) scale(0.100000,-0.100000)"
fill="#000000" stroke="none">
<path d="M2640 5379 c-221 -25 -480 -94 -697 -185 -716 -300 -1267 -940 -1458
-1694 -58 -229 -70 -334 -69 -625 1 -246 3 -283 27 -415 127 -707 521 -1305
1112 -1689 776 -505 1777 -540 2587 -90 542 301 964 806 1162 1393 227 671
158 1423 -186 2031 -406 716 -1123 1189 -1930 1275 -113 12 -439 11 -548 -1z
m480 -59 c588 -52 1116 -296 1530 -710 827 -825 958 -2115 312 -3080 -397
-593 -988 -967 -1702 -1077 -143 -22 -510 -24 -645 -4 -473 70 -873 242 -1230
528 -127 102 -318 299 -416 428 -262 350 -423 749 -480 1195 -16 122 -16 438
0 560 59 464 234 884 513 1237 90 114 268 293 383 386 488 394 1121 590 1735
537z"/>
<path d="M2705 5079 c-922 -94 -1691 -753 -1920 -1644 -53 -205 -69 -333 -69
-550 0 -425 109 -803 339 -1174 146 -237 406 -512 611 -648 84 -56 120 -25 60
53 -144 189 -168 472 -55 660 l34 56 95 -100 c205 -216 235 -341 114 -473 -29
-32 -56 -70 -60 -84 -11 -44 8 -88 49 -114 27 -18 40 -35 48 -65 20 -76 133
-156 220 -156 10 0 35 -15 55 -33 36 -31 41 -32 133 -34 53 -1 122 -7 154 -14
44 -9 82 -9 160 -1 56 7 131 14 167 17 84 8 563 -11 700 -27 152 -18 184 -17
188 5 2 10 -12 49 -31 85 -75 143 -98 330 -59 482 l17 65 110 -3 c133 -4 223
12 329 62 121 56 165 99 192 194 13 44 14 64 3 127 -15 97 -1 153 47 190 40
31 50 59 31 88 -13 20 -13 26 -1 42 19 26 18 55 -6 106 -11 26 -20 66 -20 96
0 49 2 54 31 68 17 9 57 25 90 35 121 39 159 71 159 133 0 26 -52 157 -169
425 -65 148 -71 169 -71 230 0 58 -7 85 -55 202 l-55 135 20 27 c23 31 26 81
7 118 -12 22 -11 27 10 47 38 36 30 60 -47 130 -38 36 -84 87 -101 114 l-32
50 21 22 c70 74 33 177 -64 177 -14 0 -52 -14 -84 -32 -56 -31 -59 -31 -84
-15 l-25 17 29 43 c16 23 32 54 35 69 6 23 3 27 -25 33 -39 8 -128 -2 -181
-20 -44 -16 -45 -13 -23 41 11 26 14 53 10 82 -5 41 -3 48 40 103 25 33 93
107 152 164 58 58 103 107 100 110 -2 2 -58 31 -124 64 -209 103 -418 169
-659 206 -122 19 -417 27 -540 14z m455 -69 c140 -17 288 -49 417 -91 119 -39
318 -121 338 -140 6 -6 -10 -29 -41 -62 -28 -28 -82 -88 -119 -132 -37 -44
-71 -84 -75 -88 -5 -5 -52 9 -106 31 -125 49 -266 86 -414 108 -164 24 -430
15 -591 -20 -473 -101 -859 -362 -1125 -761 -128 -192 -210 -391 -261 -634
-25 -115 -27 -145 -27 -346 0 -200 2 -231 27 -345 30 -145 92 -331 144 -434
43 -86 128 -219 195 -304 l49 -63 -17 -67 c-12 -44 -18 -102 -18 -172 0 -92 4
-116 32 -195 17 -49 30 -90 28 -92 -1 -2 -41 32 -89 75 -372 335 -613 769
-702 1267 -26 142 -31 434 -11 593 49 380 183 715 409 1019 344 462 862 768
1437 848 116 16 405 19 520 5z m62 -451 c147 -26 408 -110 408 -131 0 -4 -4
-8 -9 -8 -4 0 -25 -12 -46 -26 l-39 -26 -105 35 c-260 87 -508 106 -781 61
-622 -105 -1136 -582 -1289 -1199 -48 -197 -59 -447 -27 -649 41 -256 155
-522 303 -703 l34 -42 -27 -41 c-15 -22 -30 -40 -33 -40 -4 0 -30 30 -58 68
-197 261 -309 562 -332 896 -43 622 248 1208 770 1554 235 156 514 250 819
276 87 7 306 -6 412 -25z m457 -217 c-19 -60 -74 -134 -136 -183 -65 -52 -138
-99 -152 -99 -27 0 55 165 112 227 40 43 135 114 167 125 20 7 24 -23 9 -70z
m-484 43 c91 -20 265 -76 265 -85 0 -4 -16 -34 -35 -66 -19 -32 -35 -64 -35
-71 0 -7 -4 -13 -9 -13 -4 0 -11 20 -14 45 -2 26 -7 48 -10 51 -12 13 -85 -34
-139 -89 -39 -39 -71 -86 -97 -139 -39 -80 -39 -80 -46 -46 -15 73 -12 71 -57
46 -75 -42 -140 -129 -183 -243 -7 -18 -9 -16 -17 13 -5 17 -13 32 -19 32 -18
0 -94 -57 -127 -95 -40 -45 -69 -101 -86 -168 -13 -48 -14 -50 -21 -25 -13 52
-27 50 -93 -8 -75 -67 -109 -122 -126 -205 l-12 -62 -23 36 c-28 46 -41 41
-106 -45 -72 -95 -89 -139 -90 -230 0 -43 -2 -78 -5 -78 -3 0 -20 23 -39 50
-33 49 -35 50 -54 33 -31 -28 -76 -99 -93 -145 -16 -44 -21 -169 -9 -209 5
-14 -8 -5 -40 27 l-47 49 -28 -34 c-52 -62 -83 -155 -84 -253 l-1 -86 -34 25
c-33 25 -34 25 -47 8 -16 -22 -53 -117 -61 -157 -3 -16 -9 -28 -13 -28 -10 0
-72 138 -103 230 -55 160 -71 269 -72 480 0 169 3 209 23 299 42 185 120 366
224 519 76 111 283 315 397 391 207 137 417 218 665 256 116 18 402 12 501
-10z m705 -114 c0 -20 -68 -96 -113 -127 -79 -55 -267 -106 -267 -73 0 21 129
138 180 164 75 38 200 60 200 36z m-566 -77 c3 -9 6 -43 6 -77 0 -75 -20 -112
-102 -186 -31 -29 -67 -68 -78 -87 -34 -53 -43 -43 -38 44 5 105 38 175 123
258 36 35 69 64 74 64 5 0 12 -7 15 -16z m796 -73 c15 -29 13 -37 -20 -74 -16
-19 -30 -41 -30 -50 0 -23 81 -126 143 -183 32 -29 57 -57 57 -63 0 -20 -38
-50 -77 -60 -257 -70 -368 -108 -508 -179 -257 -128 -394 -269 -673 -689 -66
-99 -127 -187 -136 -196 -15 -15 -20 -13 -62 28 -53 52 -59 32 64 220 263 404
628 816 997 1127 162 137 220 165 245 119z m-250 -51 c0 -3 -48 -48 -106 -100
-302 -269 -639 -665 -915 -1072 l-120 -178 -42 0 c-142 -1 -245 -157 -216
-327 5 -32 12 -72 15 -88 5 -26 -2 -39 -55 -97 -34 -37 -58 -69 -53 -72 15 -9
74 27 105 66 l31 38 23 -22 c13 -12 23 -27 23 -34 0 -21 -191 -175 -296 -238
-57 -35 -58 -36 -27 -36 45 0 194 79 282 150 41 33 78 60 83 60 4 0 16 -19 27
-43 14 -32 19 -64 19 -132 -1 -61 10 -144 32 -262 35 -186 35 -233 -3 -257
-16 -11 -72 -15 -212 -18 -154 -4 -200 -8 -245 -24 -37 -13 -56 -25 -58 -38
-4 -17 0 -18 29 -12 113 24 166 27 311 21 170 -7 199 -1 232 47 24 34 20 127
-14 325 -36 208 -38 248 -12 238 9 -4 29 -12 45 -17 17 -6 29 -19 33 -36 3
-15 23 -90 44 -167 57 -208 64 -242 64 -330 0 -59 -5 -90 -19 -120 -28 -57
-68 -68 -215 -61 -319 17 -443 18 -536 6 -69 -8 -99 -9 -107 -1 -8 8 -6 33 8
89 11 42 19 96 19 118 -2 78 -81 213 -204 347 -29 32 -51 59 -49 61 2 2 31 8
64 15 133 25 227 95 281 209 31 66 27 82 -23 83 -34 0 -36 1 -18 12 78 48 161
158 180 239 7 26 5 27 -37 30 l-43 3 57 28 c65 32 116 85 153 156 36 72 34 89
-12 93 l-38 3 55 31 c66 37 120 94 155 163 32 64 32 70 -7 78 l-32 6 50 18
c101 34 185 105 230 194 l25 50 -23 3 c-43 7 -40 19 8 31 70 18 134 54 180
103 75 79 92 118 52 118 -46 0 -51 17 -8 24 121 19 248 86 300 157 36 50 38
72 8 86 -21 9 -20 10 17 17 103 20 223 110 274 208 22 40 33 49 95 75 l71 29
32 -21 c18 -11 33 -22 33 -25z m-290 -71 c0 -24 -74 -101 -123 -129 -58 -33
-105 -49 -187 -60 -88 -12 -98 -1 -49 54 45 52 125 108 183 128 58 20 176 24
176 7z m-546 -31 c11 -42 6 -138 -8 -173 -8 -19 -54 -74 -101 -122 l-87 -88 6
94 c6 112 31 172 108 256 54 60 72 67 82 33z m254 -204 c33 -9 27 -30 -25 -82
-56 -55 -116 -86 -198 -101 -72 -13 -165 -14 -165 -2 0 5 23 35 51 66 55 59
120 103 172 115 40 10 135 12 165 4z m-514 -20 c11 -29 6 -145 -8 -179 -8 -18
-49 -68 -91 -109 -86 -85 -91 -84 -81 25 9 99 39 170 96 229 51 52 74 61 84
34z m1456 -137 c0 -37 -116 -106 -178 -107 -32 0 -33 1 -30 37 l3 36 80 23
c94 26 125 29 125 11z m-280 -67 c0 -33 -36 -94 -73 -127 -36 -32 -133 -62
-146 -47 -4 5 -6 33 -3 62 5 62 18 74 121 109 83 28 101 29 101 3z m330 -167
c42 -101 53 -143 60 -212 10 -103 50 -210 182 -491 59 -125 69 -171 42 -201
-24 -27 -71 -50 -155 -78 -88 -29 -114 -56 -106 -113 4 -24 9 -55 13 -69 5
-24 2 -28 -28 -38 -19 -6 -52 -30 -74 -52 -48 -50 -83 -69 -126 -69 -28 -1
-30 -2 -15 -11 28 -17 79 0 123 41 44 41 94 70 117 70 8 0 21 -7 28 -16 11
-14 9 -20 -18 -44 l-32 -29 25 -16 c31 -20 31 -50 -2 -72 -22 -14 -32 -15 -67
-4 -86 25 -85 25 -63 7 11 -9 25 -16 32 -16 7 0 24 -4 38 -10 l26 -9 -23 -38
c-20 -34 -22 -49 -19 -145 2 -80 -1 -116 -14 -147 -48 -121 -294 -211 -495
-181 -257 37 -476 164 -746 432 l-113 112 6 55 5 56 -20 -25 c-43 -53 -52 -60
-80 -60 -41 0 -73 29 -111 102 -18 35 -48 80 -66 100 -123 138 -130 354 -14
452 38 31 69 40 116 33 73 -12 130 -80 158 -192 23 -88 70 -116 142 -83 24 11
29 10 55 -20 62 -69 143 -91 209 -57 37 19 76 99 90 186 9 54 19 75 52 115 63
75 83 126 83 214 0 64 -4 82 -27 124 -16 27 -28 55 -28 63 0 23 29 73 43 73 6
0 35 11 64 24 57 27 124 90 143 136 10 24 18 30 43 30 71 0 140 32 202 95 57
57 63 61 100 57 31 -3 55 4 105 31 41 21 69 31 77 25 6 -5 35 -66 63 -135z
m-1757 96 c26 -97 -14 -216 -99 -300 l-43 -42 -12 29 c-16 43 -6 160 20 219
23 52 98 138 115 132 6 -2 14 -19 19 -38z m440 32 c21 -5 41 -12 44 -15 11
-11 -41 -78 -84 -107 -24 -17 -70 -40 -101 -51 -63 -22 -212 -37 -212 -21 0
25 97 138 147 170 46 30 134 40 206 24z m691 -96 c10 -27 -14 -112 -45 -159
-30 -45 -94 -86 -136 -86 -13 0 -28 -13 -41 -34 -38 -65 -86 -79 -137 -42 -18
13 -18 16 -5 42 26 49 173 188 255 242 85 56 100 61 109 37z m-1354 -230 c9
-46 9 -65 -5 -113 -19 -64 -59 -133 -104 -176 l-29 -28 -17 53 c-35 105 -2
242 79 327 l31 33 17 -21 c9 -11 22 -45 28 -75z m455 65 c10 -16 -38 -92 -83
-132 -22 -20 -65 -45 -97 -57 -60 -22 -200 -45 -216 -35 -22 13 116 161 181
194 69 35 200 53 215 30z m519 -252 c20 -28 21 -100 2 -136 -8 -15 -37 -48
-65 -74 -58 -54 -91 -112 -73 -130 8 -8 17 -4 34 17 13 16 41 45 62 64 124
113 118 104 115 173 -4 70 3 88 32 88 29 0 63 -80 63 -150 0 -68 -27 -123 -95
-195 -47 -50 -49 -54 -49 -111 0 -87 -15 -132 -53 -154 -43 -27 -69 -25 -106
5 -54 46 -74 90 -68 148 3 29 1 96 -5 149 l-10 98 36 63 c43 78 121 167 146
167 11 0 26 -10 34 -22z m-1231 -54 c18 -20 37 -46 44 -58 18 -30 15 -103 -5
-162 -17 -49 -88 -154 -103 -154 -13 0 -49 107 -55 163 -8 72 11 157 47 206
16 23 31 41 34 41 3 0 20 -16 38 -36z m487 20 c0 -37 -66 -125 -120 -159 -51
-32 -163 -65 -222 -65 l-49 0 22 39 c36 64 106 138 153 160 79 39 216 55 216
25z m-160 -282 c0 -48 -91 -151 -160 -180 -35 -15 -221 -44 -229 -36 -18 18
96 162 151 190 44 23 129 43 186 43 44 1 52 -2 52 -17z m651 -26 c9 -55 -7
-135 -32 -162 -44 -47 -98 -17 -85 48 7 36 87 159 101 155 5 -2 13 -20 16 -41z
m-1172 -10 c57 -59 76 -168 45 -259 -14 -43 -87 -138 -96 -127 -13 15 -60 135
-65 164 -3 18 0 57 6 87 12 56 59 169 70 169 4 0 22 -15 40 -34z m371 -238
c-1 -25 -38 -95 -70 -132 -42 -48 -100 -81 -176 -100 -87 -22 -134 -21 -134 3
0 53 66 155 124 190 65 40 256 69 256 39z m-501 -112 c69 -102 68 -212 -4
-326 l-28 -44 -29 34 c-57 68 -72 108 -73 195 0 77 22 172 47 202 14 17 52 -9
87 -61z m381 -166 c0 -18 -41 -93 -72 -132 -41 -52 -122 -90 -208 -96 -40 -3
-70 -1 -70 5 0 23 83 173 104 186 57 38 246 65 246 37z m1092 -502 c106 -80
212 -142 303 -178 131 -51 128 -49 120 -68 -4 -9 -18 -60 -32 -112 -33 -130
-30 -249 11 -372 16 -49 27 -91 23 -94 -3 -3 -52 2 -109 12 -118 21 -365 23
-582 5 -72 -6 -133 -8 -138 -3 -4 4 -2 37 6 72 12 60 15 65 43 71 111 23 150
115 102 245 -21 54 -21 57 -4 117 23 81 16 155 -31 334 -56 213 -65 256 -59
271 3 9 48 -28 139 -116 74 -71 168 -154 208 -184z m-1228 -407 c4 -5 1 -32
-6 -60 -12 -55 -32 -66 -63 -35 -19 19 -13 58 12 87 17 18 48 23 57 8z m579
-17 c44 -6 46 -8 52 -48 15 -89 51 -143 118 -177 45 -24 49 -56 12 -111 -34
-50 -95 -72 -181 -65 -79 6 -104 26 -135 106 -36 96 -23 263 24 293 15 9 50
10 110 2z m-219 -76 c-14 -112 -8 -193 15 -242 29 -59 27 -66 -19 -66 -32 0
-48 7 -75 33 -41 38 -55 93 -55 221 0 109 12 126 87 126 l55 0 -8 -72z m572
35 c18 -42 12 -91 -15 -125 -16 -19 -29 -23 -74 -23 -48 0 -60 4 -87 30 -32
31 -57 93 -47 119 5 13 22 16 79 16 40 0 80 5 88 10 27 17 41 11 56 -27z
m-774 22 c10 -4 13 -36 12 -135 0 -71 -3 -133 -7 -136 -4 -4 -27 1 -52 10 -56
22 -78 59 -79 136 -1 85 8 106 51 118 47 12 58 13 75 7z"/>
<path d="M2959 4958 c0 -2 -6 -56 -13 -122 -9 -93 -9 -119 1 -123 24 -9 31 8
37 94 4 49 10 103 13 121 4 28 2 32 -16 32 -11 0 -21 -1 -22 -2z"/>
<path d="M2578 4935 c-3 -3 0 -34 7 -68 7 -34 18 -88 25 -119 9 -48 15 -58 32
-58 17 0 20 5 15 28 -3 15 -13 71 -23 125 -14 77 -21 97 -34 97 -9 0 -19 -2
-22 -5z"/>
<path d="M3305 4804 c-40 -95 -46 -117 -34 -125 8 -5 17 -9 20 -9 9 0 99 232
93 242 -15 24 -36 -3 -79 -108z"/>
<path d="M2214 4836 c-7 -19 95 -226 112 -226 28 0 23 23 -31 130 -53 106 -70
126 -81 96z"/>
<path d="M3606 4725 c-76 -95 -91 -125 -58 -125 26 1 174 194 159 209 -6 6
-14 11 -18 11 -4 0 -41 -43 -83 -95z"/>
<path d="M1855 4670 c-4 -6 26 -48 66 -93 40 -45 78 -88 84 -95 11 -13 45 -7
45 8 0 15 -161 190 -175 190 -8 0 -17 -5 -20 -10z"/>
<path d="M1536 4441 c-11 -16 -6 -21 102 -95 93 -63 122 -74 122 -43 0 13
-173 137 -201 144 -9 3 -20 0 -23 -6z"/>
<path d="M1267 4153 c-20 -19 4 -35 110 -77 103 -40 119 -44 132 -31 8 8 13
16 10 19 -4 3 -238 96 -243 96 -2 0 -6 -3 -9 -7z"/>
<path d="M1047 3796 c-8 -21 -6 -22 131 -41 118 -17 142 -16 142 8 0 14 -70
29 -211 44 -46 5 -57 3 -62 -11z"/>
<path d="M1027 3446 c-84 -8 -111 -15 -118 -28 -5 -9 -6 -19 -1 -22 11 -7 244
18 260 27 6 5 12 15 12 23 0 16 2 16 -153 0z"/>
<path d="M971 3079 c-124 -42 -137 -49 -128 -73 5 -13 24 -9 124 25 111 38
149 61 137 80 -7 12 -4 13 -133 -32z"/>
<path d="M970 2704 c-63 -41 -116 -81 -118 -89 -8 -33 26 -22 116 36 122 79
137 92 125 113 -7 13 -27 3 -123 -60z"/>
<path d="M1040 2333 c-86 -96 -99 -118 -82 -135 13 -13 192 183 192 211 0 37
-23 21 -110 -76z"/>
<path d="M1217 2028 c-84 -153 -100 -190 -84 -205 13 -13 20 -4 60 69 75 138
89 169 83 184 -10 26 -24 14 -59 -48z"/>
<path d="M1415 1798 c-16 -44 -65 -273 -61 -285 3 -7 11 -13 19 -13 16 0 83
270 73 295 -7 18 -25 20 -31 3z"/>
<path d="M4035 3222 c-46 -16 -79 -37 -219 -137 -83 -60 -20 -38 73 25 94 64
164 99 195 100 11 0 32 -12 48 -27 31 -29 44 -26 33 7 -5 17 -60 52 -77 50 -2
-1 -25 -8 -53 -18z"/>
<path d="M4120 3106 c0 -20 -36 -42 -83 -50 -21 -4 -74 -32 -120 -63 -45 -31
-108 -68 -139 -83 -58 -27 -58 -28 -27 -34 58 -11 308 -28 333 -22 23 6 24 8
23 95 -2 83 0 91 19 100 16 7 20 16 17 35 -6 29 -23 46 -23 22z m-45 -156 l0
-55 -99 -3 c-114 -3 -137 1 -115 23 30 29 165 95 189 93 23 -3 25 -7 25 -58z"/>
<path d="M2636 2588 c-63 -63 -72 -210 -16 -288 11 -15 42 -42 68 -58 34 -21
50 -38 57 -63 9 -29 14 -34 40 -34 23 0 31 5 33 23 2 12 -1 22 -7 22 -6 0 -11
-4 -11 -10 0 -24 -31 -7 -44 24 -8 18 -33 46 -56 62 -73 49 -85 73 -85 168 0
75 2 86 28 120 23 29 35 36 55 34 38 -4 54 -56 43 -144 -7 -59 -5 -70 11 -86
18 -18 48 -25 48 -11 0 4 -9 17 -21 29 -20 21 -20 23 -4 84 26 98 6 140 -73
156 -27 5 -37 1 -66 -28z"/>
<path d="M4191 2521 c-23 -139 4 -158 133 -93 45 22 91 44 104 47 24 7 30 25
9 25 -8 0 -55 -20 -106 -45 -117 -58 -136 -56 -128 19 4 28 9 68 13 89 4 21 3
37 -3 37 -5 0 -15 -36 -22 -79z"/>
</g>
</svg>
