<?xml version="1.0" standalone="no"?>
<!DOCTYPE svg PUBLIC "-//W3C//DTD SVG 20010904//EN"
 "http://www.w3.org/TR/2001/REC-SVG-20010904/DTD/svg10.dtd">
<svg version="1.0" xmlns="http://www.w3.org/2000/svg"
 width="204.000000pt" height="192.000000pt" viewBox="0 0 204.000000 192.000000"
 preserveAspectRatio="xMidYMid meet">

<g transform="translate(0.000000,192.000000) scale(0.100000,-0.100000)"
fill="#000000" stroke="none">
<path d="M0 960 l0 -960 1020 0 1020 0 0 960 0 960 -1020 0 -1020 0 0 -960z
m932 370 c79 -115 147 -208 153 -206 5 1 90 96 188 209 l179 207 50 0 c48 0
50 -1 36 -17 -407 -471 -410 -474 -392 -501 9 -13 112 -164 230 -334 118 -170
214 -311 214 -314 0 -2 -76 -4 -168 -4 l-169 0 -154 225 c-85 124 -156 225
-160 225 -4 0 -110 -121 -364 -416 -28 -33 -34 -35 -78 -32 l-49 3 221 256
c122 142 221 259 221 262 0 3 -97 146 -215 317 -118 171 -217 315 -220 321 -4
5 60 9 164 9 l170 0 143 -210z"/>
<path d="M778 1202 c97 -142 254 -369 347 -505 l170 -247 73 0 73 0 -101 148
c-55 81 -149 217 -208 303 -59 85 -169 246 -246 357 l-139 202 -73 0 -73 0
177 -258z"/>
</g>
</svg>
